<svg xmlns="http://www.w3.org/2000/svg" width="305" height="84" viewBox="0 0 305 84"><style>.st1{fill:#fff}.st1,.st3{fill-rule:evenodd;clip-rule:evenodd}.st3,.st4{fill:#2e2e2e}</style><path d="M207.8 26.3v13.9c-.5-1.2-1.1-2.3-1.9-3.2-1.9-2.1-4.4-3.1-7.6-3.1-2.1 0-4 .5-5.7 1.5-1.3.8-2.3 1.8-3.1 3l1.4-4.2h-9.6l-2 7.3-2-7.3h-9.6l.9 2.7c-.3-.3-.5-.6-.8-.8-1.7-1.5-4.1-2.2-6.9-2.2-1.8 0-3.5.3-5 1-1 .4-1.9 1-2.6 1.7v-1.9l-1.4-.4c-.7-.2-1.4-.3-2.2-.3-.7 0-1.6.1-2.5.5v-.1h-8.7v7c-.3-2.1-1.2-3.8-2.7-5.1-1.7-1.5-4.1-2.2-6.9-2.2-1.8 0-3.5.3-5 1-1.6.7-2.8 1.6-3.7 2.9-.9 1.3-1.4 2.7-1.4 4.2v2h2.3c-1.5 1.3-2.4 3-2.6 5.1h-9.2V27.7H100v29.6h20.5v-2.2l.4.4c1.6 1.4 3.6 2.1 6 2.1 1.4 0 2.7-.3 3.8-.8l.3.5h16.6V43.4c.2-.2.7-.5 1.8-.5.4 0 .9 0 1.4.1v1h2.3c-1.8 1.4-2.7 3.5-2.7 6 0 2.2.9 4.1 2.5 5.6 1.6 1.4 3.6 2.1 6 2.1 1.4 0 2.7-.3 3.8-.8l.3.5h8.4v-2.8l-.2-.4c-.2-.4-.5-1.2-.5-3.2v-8.1l4.9 14.5h7.7l4.4-12.9c0 .5-.1.9-.1 1.4v.5c0 3.4 1.1 6.2 3.2 8.3 2.1 2.1 4.9 3.1 8.2 3.1 1.9 0 3.6-.4 5.2-1.1a9 9 0 0 0 3.8-3.1v3.8h9.1v-31h-9.3z" fill="#fff"/><g transform="translate(-10 -10)"><circle class="st1" cx="52" cy="52" r="42"/><linearGradient id="SVGID_1_" gradientUnits="userSpaceOnUse" x1="21.387" y1="330.012" x2="21.387" y2="329.012" gradientTransform="matrix(80 0 0 -80 -1659 26413)"><stop offset="0" stop-color="#4bc0ce"/><stop offset="1" stop-color="#4ba898"/></linearGradient><circle cx="52" cy="52" r="40" fill-rule="evenodd" clip-rule="evenodd" fill="url(#SVGID_1_)"/><path class="st1" d="M76.8 76.8c13.7-13.7 13.7-35.8 0-49.5-13.7-13.7-35.8-13.7-49.5 0-13.7 13.7-13.7 35.8 0 49.5 13.6 13.6 35.8 13.6 49.5 0zm-2.9-2.9C86 61.8 86 42.2 73.9 30.1 61.8 18 42.2 18 30.1 30.1s-12.1 31.7 0 43.8C42.2 86 61.8 86 73.9 73.9z"/><path class="st1" d="M59.8 73.9c8.2-8.2 8.2-21.5 0-29.7s-21.5-8.2-29.7 0-8.2 21.5 0 29.7 21.5 8.2 29.7 0zm2.8 2.9c-9.8 9.8-25.6 9.8-35.4 0-9.8-9.8-9.8-25.6 0-35.4 9.8-9.8 25.6-9.8 35.4 0 9.8 9.8 9.8 25.6 0 35.4z"/><path class="st1" d="M45.6 73.9c4.3-4.3 4.3-11.3 0-15.6-4.3-4.3-11.3-4.3-15.6 0s-4.3 11.3 0 15.6 11.3 4.3 15.6 0zm2.9 2.9c-5.9 5.9-15.4 5.9-21.2 0-5.9-5.9-5.9-15.4 0-21.2s15.4-5.9 21.2 0 5.8 15.3 0 21.2z"/></g><path class="st3" d="M107.3 51.1h11.2v4.2H102V29.7h5.3zM151.1 41.1c-.7-.1-1.3-.1-1.8-.1-1.9 0-3.2.7-3.8 2v12.4h-5.1v-19h4.8l.1 2.3c1-1.7 2.4-2.6 4.2-2.6.6 0 1.1.1 1.6.2v4.8z"/><path class="st4" d="M164.1 55.3zM169.2 55c-.5-.9-.7-2.3-.8-4.1v-8.2c0-2.1-.7-3.8-2.1-5-1.4-1.2-3.2-1.8-5.6-1.8-1.5 0-2.9.3-4.2.8-1.2.5-2.2 1.3-2.9 2.2-.7.9-1 2-1 3.1h5.1c0-.7.2-1.3.7-1.7.5-.4 1.2-.6 2-.6 1 0 1.7.3 2.1.8.5.5.7 1.2.7 2.1v1.1H161c-2.8 0-5 .6-6.5 1.6s-2.2 2.6-2.2 4.6c0 1.6.6 3 1.8 4.1 1.2 1.1 2.8 1.6 4.6 1.6 2 0 3.6-.7 4.8-2.1.1.7.3 1.2.5 1.7h5.1V55zm-5.8-5.1c-.3.6-.8 1-1.4 1.3-.6.3-1.3.5-2.1.5s-1.4-.2-1.8-.6c-.4-.4-.7-.9-.7-1.6v-.3c.2-1.8 1.5-2.6 4.1-2.6h1.9v3.3z"/><path class="st3" d="m179.2 49.1 3.6-12.8h5.3l-6.5 19h-4.8l-6.4-19h5.3l3.5 12.8z"/><path class="st4" d="M206.6 45.4c0-3-.7-5.3-2.2-7-1.5-1.6-3.5-2.5-6.1-2.5-1.7 0-3.3.4-4.6 1.2-1.4.8-2.4 2-3.1 3.5-.7 1.5-1.1 3.2-1.1 5.1v.5c0 2.8.9 5.1 2.6 6.8 1.7 1.7 4 2.6 6.8 2.6 1.6 0 3-.3 4.3-.9 1.3-.6 2.3-1.4 3.1-2.5l-2.5-2.8c-1.1 1.4-2.6 2.1-4.6 2.1-1.3 0-2.3-.4-3.1-1.1-.8-.8-1.3-1.7-1.5-3h12.1v-2zm-4.9-1.4h-7.1c.2-1.3.6-2.2 1.2-2.9.6-.7 1.4-1 2.5-1s1.9.3 2.5.9c.6.6.9 1.5.9 2.6v.4z"/><path class="st3" d="M214.9 55.3h-5.1v-27h5.1v27z"/><path class="st4" d="M137.3 55c-.5-.9-.7-2.3-.8-4.1v-8.2c0-2.1-.7-3.8-2.1-5-1.4-1.2-3.2-1.8-5.6-1.8-1.5 0-2.9.3-4.2.8-1.2.5-2.2 1.3-2.9 2.2-.7.9-1 2-1 3.1h5.1c0-.7.2-1.3.7-1.7.5-.4 1.2-.6 2-.6 1 0 1.7.3 2.1.8.5.5.7 1.2.7 2.1v1.1H129c-2.8 0-5 .6-6.5 1.6-1.5 1.1-2.2 2.6-2.2 4.6 0 1.6.6 3 1.8 4.1 1.2 1.1 2.8 1.6 4.6 1.6 2 0 3.6-.7 4.8-2.1.1.7.3 1.2.5 1.7h5.1V55zm-5.8-5.1c-.3.6-.8 1-1.4 1.3-.6.3-1.3.5-2.1.5s-1.4-.2-1.8-.6c-.4-.4-.7-.9-.7-1.6v-.3c.2-1.8 1.5-2.6 4.1-2.6h1.9v3.3z"/><path class="st1" d="M255.8 57.2c-2.9 0-5.3-1.1-7.1-3.1-1.7-2-2.5-4.7-2.5-8v-.6c0-2.1.4-4 1.1-5.6.8-1.7 1.9-3 3.4-4 1.5-.9 3.2-1.4 5.1-1.4 2.5 0 4.5.8 6.2 2.3 1.6 1.5 2.5 3.5 2.7 5.9l.1 1.6h-5l-.1-1.4c-.1-1.1-.4-2-1.1-2.6-.7-.7-1.6-1-2.7-1-1.4 0-2.5.5-3.2 1.5-.8 1.1-1.3 2.7-1.3 4.9v.6c0 2.1.4 3.7 1.3 4.8.7 1 1.7 1.4 3.1 1.5h.2c1.1 0 2-.3 2.7-.9.7-.6 1-1.2 1.1-2.1l.1-1.4h5l-.1 1.6c-.1 1.4-.5 2.8-1.4 4-.8 1.2-1.9 2.1-3.2 2.7-1.5.4-2.9.7-4.4.7zm38.6 0c-3 0-5.4-1.1-7.3-3.2-1.8-2-2.7-4.8-2.7-8.1v-.4c0-2 .4-3.9 1.2-5.6.8-1.7 2-3.1 3.6-4 1.5-1 3.3-1.5 5.2-1.5 3 0 5.4 1.1 7.3 3.2 1.8 2.1 2.7 4.8 2.7 8.1v.4c0 2.1-.4 3.9-1.2 5.6-.8 1.7-2 3.1-3.6 4-1.5 1-3.3 1.5-5.2 1.5zm0-18c-1.4 0-2.5.5-3.4 1.6-1 1.2-1.4 2.8-1.4 4.8v.4c0 1.9.5 3.5 1.4 4.7.9 1.1 2 1.6 3.5 1.6s2.5-.5 3.4-1.6c1-1.2 1.4-2.8 1.4-4.8v-.4c0-1.2-.2-2.4-.7-3.4-.4-1-1-1.7-1.7-2.2-.8-.4-1.6-.7-2.5-.7zm-66.8 17.6V28.2h18.8V33h-13.7v6.6h12v4.8h-12V52h13.8v4.8h-18.9zm50.5 0v-14c0-1.3-.3-2.3-.7-2.8-.4-.5-1.2-.7-2.3-.7-1 0-1.8.3-2.5.9-.7.6-1.3 1.4-1.7 2.4v14.3h-5.1v-30h5.1v9c.1-.1.3-.2.4-.2 1.3-.8 2.8-1.1 4.3-1.1 2.5 0 4.4.8 5.7 2.2 1.2 1.4 1.9 3.5 1.9 6.1v14h-5.1z"/><path class="st3" d="M243.2 43.1h-12v10.4H245v1.8h-15.9V29.7h15.8v1.8h-13.7v9.6h12v2zm12.6 10.8c1.5 0 2.7-.4 3.7-1.2 1-.8 1.5-1.9 1.6-3.2h2c-.1 1.2-.4 2.2-1.1 3.2s-1.6 1.7-2.7 2.2c-1.1.5-2.3.8-3.6.8-2.5 0-4.5-.9-5.9-2.6-1.5-1.7-2.2-4.1-2.2-7v-.6c0-1.9.3-3.5 1-5 .7-1.4 1.6-2.6 2.8-3.3 1.2-.8 2.7-1.2 4.3-1.2 2.1 0 3.8.6 5.2 1.9 1.4 1.2 2.1 2.9 2.2 4.9h-2c-.1-1.5-.6-2.7-1.6-3.6-1-.9-2.2-1.4-3.7-1.4-1.9 0-3.4.7-4.4 2.1-1.1 1.4-1.6 3.3-1.6 5.8v.6c0 2.4.5 4.3 1.6 5.7 1 1.2 2.5 1.9 4.4 1.9zm13.6-14.4c.7-1.1 1.6-2 2.7-2.6 1.1-.6 2.3-.9 3.5-.9 2 0 3.6.6 4.6 1.7 1 1.1 1.5 2.9 1.5 5.2v12.5h-2.1V42.8c0-1.7-.4-3-1.1-3.8-.7-.8-1.8-1.2-3.4-1.2-1.3 0-2.5.4-3.5 1.2-1 .8-1.7 1.9-2.2 3.3v13h-2.1v-27h2.1v11.2zm16.5 6c0-1.8.4-3.5 1.1-4.9.7-1.5 1.7-2.6 3-3.4 1.3-.8 2.8-1.2 4.4-1.2 2.5 0 4.6.9 6.2 2.7 1.6 1.8 2.4 4.1 2.4 7.1v.4c0 1.8-.4 3.5-1.1 5-.7 1.5-1.7 2.6-3 3.4-1.3.8-2.8 1.2-4.4 1.2-2.5 0-4.6-.9-6.1-2.7-1.6-1.8-2.4-4.1-2.4-7.1l-.1-.5zm2.1.6c0 2.3.6 4.1 1.8 5.6 1.2 1.5 2.7 2.2 4.6 2.2 1.9 0 3.4-.7 4.6-2.2 1.2-1.5 1.8-3.4 1.8-5.8v-.4c0-1.5-.3-2.8-.8-4-.5-1.2-1.3-2.1-2.3-2.8-1-.7-2.1-1-3.3-1-1.9 0-3.4.7-4.6 2.2-1.2 1.5-1.8 3.4-1.8 5.8v.4z"/></svg>