<svg viewBox="0 0 301 80" xmlns="http://www.w3.org/2000/svg">
    <style>
        #echo { fill: #2e2e2e } @media (prefers-color-scheme:dark) { #echo { fill: #fff } }
    </style>
    <path d="M40 80C62.0914 80 80 62.0914 80 40C80 17.9086 62.0914 0 40 0C17.9086 0 0 17.9086 0 40C0 62.0914 17.9086 80 40 80Z" fill="url(#paint0_linear_0_1)"/>
    <path fill-rule="evenodd" clip-rule="evenodd" d="M64.8 64.7999C78.5 51.0999 78.5 28.9999 64.8 15.2999C51.1 1.5999 29 1.5999 15.3 15.2999C1.6 28.9999 1.6 51.0999 15.3 64.7999C28.9 78.3999 51.1 78.3999 64.8 64.7999ZM61.9 61.8999C74 49.7999 74 30.1999 61.9 18.0999C49.8 5.9999 30.2 5.9999 18.1 18.0999C6 30.1999 6 49.7999 18.1 61.8999C30.2 73.9999 49.8 73.9999 61.9 61.8999Z" fill="white"/>
    <path fill-rule="evenodd" clip-rule="evenodd" d="M47.8 61.9C56 53.7 56 40.4 47.8 32.2C39.6 24 26.3 24 18.1 32.2C9.9 40.4 9.9 53.7 18.1 61.9C26.3 70.1 39.6 70.1 47.8 61.9ZM50.6 64.8C40.8 74.6 25 74.6 15.2 64.8C5.4 55 5.4 39.2 15.2 29.4C25 19.6 40.8 19.6 50.6 29.4C60.4 39.2 60.4 55 50.6 64.8Z" fill="white"/>
    <path fill-rule="evenodd" clip-rule="evenodd" d="M33.6 61.9C37.9 57.6 37.9 50.6 33.6 46.3C29.3 42 22.3 42 18 46.3C13.7 50.6 13.7 57.6 18 61.9C22.3 66.2 29.3 66.2 33.6 61.9ZM36.5 64.8C30.6 70.7 21.1 70.7 15.3 64.8C9.4 58.9 9.4 49.4 15.3 43.6C21.2 37.8 30.7 37.7 36.5 43.6C42.3 49.5 42.3 58.9 36.5 64.8Z" fill="white"/>
    <path id="echo" fill-rule="evenodd" clip-rule="evenodd" d="M105.3 49.0999H116.5V53.2999H100V27.7H105.3V49.0999ZM149.1 39.0999C148.4 38.9999 147.8 39 147.3 39C145.4 39 144.1 39.7 143.5 41V53.4H138.4V34.4H143.2L143.3 36.7C144.3 35 145.7 34.0999 147.5 34.0999C148.1 34.0999 148.6 34.1999 149.1 34.2999V39.0999Z"/>
    <path id="echo" d="M167.2 52.9999C166.7 52.0999 166.5 50.6999 166.4 48.8999V40.6999C166.4 38.5999 165.7 36.8999 164.3 35.6999C162.9 34.4999 161.1 33.8999 158.7 33.8999C157.2 33.8999 155.8 34.1999 154.5 34.6999C153.3 35.1999 152.3 35.9999 151.6 36.8999C150.9 37.7999 150.6 38.8999 150.6 39.9999H155.7C155.7 39.2999 155.9 38.6999 156.4 38.2999C156.9 37.8999 157.6 37.6999 158.4 37.6999C159.4 37.6999 160.1 37.9999 160.5 38.4999C161 38.9999 161.2 39.6999 161.2 40.5999V41.6999H159C156.2 41.6999 154 42.2999 152.5 43.2999C151 44.2999 150.3 45.8999 150.3 47.8999C150.3 49.4999 150.9 50.8999 152.1 51.9999C153.3 53.0999 154.9 53.5999 156.7 53.5999C158.7 53.5999 160.3 52.8999 161.5 51.4999C161.6 52.1999 161.8 52.6999 162 53.1999H167.1V52.9999H167.2ZM161.4 47.8999C161.1 48.4999 160.6 48.8999 160 49.1999C159.4 49.4999 158.7 49.6999 157.9 49.6999C157.1 49.6999 156.5 49.4999 156.1 49.0999C155.7 48.6999 155.4 48.1999 155.4 47.4999V47.1999C155.6 45.3999 156.9 44.5999 159.5 44.5999H161.4V47.8999Z"/>
    <path id="echo" fill-rule="evenodd" clip-rule="evenodd" d="M177.2 47.1L180.8 34.3H186.1L179.6 53.3H174.8L168.4 34.3H173.7L177.2 47.1Z"/>
    <path id="echo" d="M204.6 43.3999C204.6 40.3999 203.9 38.0999 202.4 36.3999C200.9 34.7999 198.9 33.8999 196.3 33.8999C194.6 33.8999 193 34.2999 191.7 35.0999C190.3 35.8999 189.3 37.0999 188.6 38.5999C187.9 40.0999 187.5 41.7999 187.5 43.6999V44.1999C187.5 46.9999 188.4 49.2999 190.1 50.9999C191.8 52.6999 194.1 53.5999 196.9 53.5999C198.5 53.5999 199.9 53.2999 201.2 52.6999C202.5 52.0999 203.5 51.2999 204.3 50.1999L201.8 47.3999C200.7 48.7999 199.2 49.4999 197.2 49.4999C195.9 49.4999 194.9 49.0999 194.1 48.3999C193.3 47.5999 192.8 46.6999 192.6 45.3999H204.7V43.3999H204.6ZM199.7 41.9999H192.6C192.8 40.6999 193.2 39.7999 193.8 39.0999C194.4 38.3999 195.2 38.0999 196.3 38.0999C197.4 38.0999 198.2 38.3999 198.8 38.9999C199.4 39.5999 199.7 40.4999 199.7 41.5999V41.9999Z"/>
    <path id="echo" fill-rule="evenodd" clip-rule="evenodd" d="M212.9 53.3H207.8V26.3H212.9V53.3Z"/>
    <path id="echo" d="M135.3 52.9999C134.8 52.0999 134.6 50.6999 134.5 48.8999V40.6999C134.5 38.5999 133.8 36.8999 132.4 35.6999C131 34.4999 129.2 33.8999 126.8 33.8999C125.3 33.8999 123.9 34.1999 122.6 34.6999C121.4 35.1999 120.4 35.9999 119.7 36.8999C119 37.7999 118.7 38.8999 118.7 39.9999H123.8C123.8 39.2999 124 38.6999 124.5 38.2999C125 37.8999 125.7 37.6999 126.5 37.6999C127.5 37.6999 128.2 37.9999 128.6 38.4999C129.1 38.9999 129.3 39.6999 129.3 40.5999V41.6999H127C124.2 41.6999 122 42.2999 120.5 43.2999C119 44.3999 118.3 45.8999 118.3 47.8999C118.3 49.4999 118.9 50.8999 120.1 51.9999C121.3 53.0999 122.9 53.5999 124.7 53.5999C126.7 53.5999 128.3 52.8999 129.5 51.4999C129.6 52.1999 129.8 52.6999 130 53.1999H135.1V52.9999H135.3ZM129.5 47.8999C129.2 48.4999 128.7 48.8999 128.1 49.1999C127.5 49.4999 126.8 49.6999 126 49.6999C125.2 49.6999 124.6 49.4999 124.2 49.0999C123.8 48.6999 123.5 48.1999 123.5 47.4999V47.1999C123.7 45.3999 125 44.5999 127.6 44.5999H129.5V47.8999Z"/>
    <path id="echo" fill-rule="evenodd" clip-rule="evenodd" d="M241.2 41.1H229.2V51.5H243V53.3H227.1V27.7001H242.9V29.5H229.2V39.1H241.2V41.1ZM253.8 51.9001C255.3 51.9001 256.5 51.5001 257.5 50.7001C258.5 49.9001 259 48.8 259.1 47.5H261.1C261 48.7 260.7 49.7001 260 50.7001C259.3 51.7001 258.4 52.4001 257.3 52.9001C256.2 53.4001 255 53.7001 253.7 53.7001C251.2 53.7001 249.2 52.8 247.8 51.1C246.3 49.4 245.6 47 245.6 44.1V43.5C245.6 41.6 245.9 40 246.6 38.5C247.3 37.1 248.2 35.9001 249.4 35.2001C250.6 34.4001 252.1 34 253.7 34C255.8 34 257.5 34.6001 258.9 35.9001C260.3 37.1001 261 38.8 261.1 40.8H259.1C259 39.3 258.5 38.1001 257.5 37.2001C256.5 36.3001 255.3 35.8 253.8 35.8C251.9 35.8 250.4 36.5001 249.4 37.9001C248.3 39.3001 247.8 41.2001 247.8 43.7001V44.3C247.8 46.7 248.3 48.6 249.4 50C250.4 51.2 251.9 51.9001 253.8 51.9001ZM267.4 37.5C268.1 36.4 269 35.5001 270.1 34.9001C271.2 34.3001 272.4 34 273.6 34C275.6 34 277.2 34.6001 278.2 35.7001C279.2 36.8001 279.7 38.6001 279.7 40.9001V53.4001H277.6V40.8C277.6 39.1 277.2 37.8 276.5 37C275.8 36.2 274.7 35.8 273.1 35.8C271.8 35.8 270.6 36.2 269.6 37C268.6 37.8 267.9 38.9 267.4 40.3V53.3H265.3V26.3H267.4V37.5ZM283.9 43.5C283.9 41.7 284.3 40 285 38.6C285.7 37.1 286.7 36.0001 288 35.2001C289.3 34.4001 290.8 34 292.4 34C294.9 34 297 34.9001 298.6 36.7001C300.2 38.5001 301 40.8 301 43.8V44.2001C301 46.0001 300.6 47.7001 299.9 49.2001C299.2 50.7001 298.2 51.8 296.9 52.6C295.6 53.4 294.1 53.8 292.5 53.8C290 53.8 287.9 52.9 286.4 51.1C284.8 49.3 284 47 284 44L283.9 43.5ZM286 44.1C286 46.4 286.6 48.2001 287.8 49.7001C289 51.2001 290.5 51.9001 292.4 51.9001C294.3 51.9001 295.8 51.2001 297 49.7001C298.2 48.2001 298.8 46.3001 298.8 43.9001V43.5C298.8 42 298.5 40.7 298 39.5C297.5 38.3 296.7 37.4001 295.7 36.7001C294.7 36.0001 293.6 35.7001 292.4 35.7001C290.5 35.7001 289 36.4001 287.8 37.9001C286.6 39.4001 286 41.3001 286 43.7001V44.1Z"/>
    <defs>
        <linearGradient id="paint0_linear_0_1" x1="39.96" y1="0.04" x2="39.96" y2="80.04" gradientUnits="userSpaceOnUse">
            <stop stop-color="#4BC0CE"/>
            <stop offset="1" stop-color="#4BA898"/>
        </linearGradient>
    </defs>
</svg>
