<svg xmlns="http://www.w3.org/2000/svg" width="306" height="80" viewBox="0 0 306 80">
    <defs><linearGradient id="a" x1="50%" x2="50%" y1="0%" y2="100%"><stop stop-color="#4BC0CE" offset="0%"/><stop stop-color="#4BA898" offset="100%"/></linearGradient></defs><g fill="none" fill-rule="evenodd"><path fill="#2E2E2E" d="M105.273 49.088h11.198v4.236H100V27.73h5.273v21.358zm24.91 4.236c-.236-.457-.406-1.025-.51-1.705-1.232 1.37-2.83 2.056-4.8 2.056-1.863 0-3.407-.54-4.632-1.617-1.223-1.08-1.836-2.44-1.836-4.08 0-2.015.747-3.562 2.242-4.64 1.494-1.078 3.653-1.623 6.477-1.635h2.338v-1.09c0-.88-.225-1.582-.676-2.11-.45-.526-1.163-.79-2.136-.79-.855 0-1.526.205-2.012.615-.487.41-.73.973-.73 1.688h-5.08c0-1.102.34-2.122 1.02-3.06.68-.937 1.64-1.672 2.883-2.205 1.24-.533 2.635-.8 4.182-.8 2.344 0 4.204.59 5.58 1.767 1.378 1.177 2.067 2.833 2.067 4.966v8.244c.01 1.804.262 3.17.754 4.095v.3h-5.132zm-4.203-3.533c.75 0 1.442-.166 2.075-.5.633-.334 1.1-.782 1.406-1.345v-3.27h-1.898c-2.542 0-3.896.88-4.06 2.638l-.018.298c0 .634.223 1.156.668 1.566.446.41 1.055.615 1.828.615zm23.168-10.722c-.69-.093-1.3-.14-1.828-.14-1.922 0-3.18.65-3.78 1.95v12.446h-5.08v-19.02h4.8l.14 2.268c1.02-1.746 2.432-2.62 4.237-2.62.562 0 1.09.077 1.582.23l-.072 4.886zm12.938 14.256c-.234-.457-.404-1.025-.51-1.705-1.23 1.37-2.83 2.056-4.8 2.056-1.862 0-3.406-.54-4.63-1.617-1.225-1.08-1.837-2.44-1.837-4.08 0-2.015.746-3.562 2.24-4.64 1.494-1.078 3.653-1.623 6.477-1.635h2.338v-1.09c0-.88-.225-1.582-.677-2.11-.45-.526-1.163-.79-2.135-.79-.856 0-1.527.205-2.013.615-.486.41-.73.973-.73 1.688h-5.08c0-1.102.34-2.122 1.02-3.06.68-.937 1.64-1.672 2.883-2.205 1.242-.533 2.637-.8 4.183-.8 2.344 0 4.205.59 5.58 1.767 1.378 1.177 2.067 2.833 2.067 4.966v8.244c.012 1.804.264 3.17.756 4.095v.3h-5.134zm-4.2-3.533c.75 0 1.44-.166 2.073-.5.632-.334 1.1-.782 1.405-1.345v-3.27h-1.898c-2.543 0-3.897.88-4.06 2.638l-.018.298c0 .634.22 1.156.667 1.566.445.41 1.054.615 1.828.615zm19.335-2.67l3.534-12.815h5.31l-6.418 19.02h-4.85l-6.417-19.02h5.308l3.533 12.814zm19.6 6.556c-2.79 0-5.06-.856-6.81-2.567-1.753-1.712-2.63-3.99-2.63-6.84v-.49c0-1.91.37-3.62 1.108-5.125.74-1.506 1.784-2.666 3.138-3.48 1.353-.815 2.897-1.222 4.632-1.222 2.6 0 4.65.82 6.143 2.46 1.496 1.642 2.243 3.968 2.243 6.98v2.074H192.53c.165 1.242.66 2.238 1.487 2.988.826.75 1.872 1.125 3.137 1.125 1.957 0 3.487-.71 4.588-2.127l2.496 2.795c-.76 1.078-1.793 1.92-3.093 2.523-1.3.604-2.743.906-4.325.906zm-.58-15.61c-1.008 0-1.825.34-2.452 1.02-.627.68-1.028 1.652-1.204 2.918h7.066V41.6c-.023-1.125-.328-1.996-.914-2.61-.586-.616-1.418-.924-2.496-.924zm16.647 15.258h-5.098v-27h5.097v27zm28.353-12.27h-11.97v10.442h13.763v1.828h-15.926V27.73h15.838v1.846H229.27v9.65h11.97v1.83zM253.79 51.9c1.466 0 2.693-.413 3.684-1.24.99-.825 1.526-1.894 1.608-3.207h2.022c-.06 1.16-.422 2.218-1.09 3.173-.668.955-1.556 1.702-2.663 2.24-1.107.54-2.293.81-3.56.81-2.495 0-4.473-.867-5.932-2.602-1.46-1.734-2.188-4.066-2.188-6.996v-.633c0-1.875.328-3.533.984-4.974.657-1.44 1.597-2.554 2.822-3.34 1.224-.784 2.657-1.177 4.297-1.177 2.086 0 3.806.62 5.16 1.863 1.353 1.243 2.077 2.877 2.17 4.905h-2.02c-.095-1.488-.63-2.69-1.61-3.603-.978-.914-2.21-1.37-3.7-1.37-1.898 0-3.372.685-4.42 2.056-1.05 1.37-1.574 3.293-1.574 5.765v.616c0 2.425.524 4.318 1.573 5.677 1.048 1.36 2.528 2.04 4.438 2.04zm13.606-14.38c.692-1.135 1.577-2.014 2.655-2.635 1.08-.62 2.257-.932 3.534-.932 2.04 0 3.557.574 4.553 1.723.996 1.148 1.5 2.87 1.51 5.168v12.48h-2.09V40.826c-.012-1.7-.372-2.965-1.08-3.797-.71-.833-1.844-1.25-3.403-1.25-1.3 0-2.452.408-3.454 1.223-1.002.814-1.743 1.913-2.224 3.296v13.024h-2.09v-27h2.09V37.52zm16.506 6.013c0-1.828.355-3.474 1.064-4.94.71-1.464 1.71-2.604 3.006-3.418 1.295-.815 2.762-1.222 4.403-1.222 2.53 0 4.582.888 6.152 2.663 1.57 1.776 2.356 4.128 2.356 7.058v.44c0 1.84-.355 3.494-1.064 4.965-.71 1.47-1.71 2.604-2.998 3.4-1.29.797-2.76 1.196-4.412 1.196-2.52 0-4.567-.888-6.143-2.663-1.577-1.776-2.365-4.128-2.365-7.058v-.422zm2.11.58c0 2.274.59 4.14 1.766 5.6 1.178 1.458 2.722 2.187 4.632 2.187 1.9 0 3.437-.73 4.614-2.188 1.178-1.46 1.767-3.384 1.767-5.775v-.404c0-1.453-.27-2.783-.808-3.99-.54-1.207-1.294-2.142-2.267-2.804-.973-.663-2.086-.994-3.34-.994-1.875 0-3.404.735-4.588 2.206-1.183 1.47-1.775 3.396-1.775 5.775v.386z"/><g transform="translate(-10 -10)"><circle cx="50" cy="50" r="40" fill="url(#a)"/><g fill="#FFF"><path d="M74.75 74.75c13.667-13.67 13.667-35.83 0-49.5-13.67-13.667-35.83-13.667-49.498 0-13.67 13.67-13.67 35.83 0 49.5 13.668 13.667 35.83 13.667 49.497 0zm-2.83-2.83c12.107-12.106 12.107-31.734 0-43.84-12.106-12.106-31.734-12.106-43.84 0-12.106 12.106-12.106 31.734 0 43.84 12.106 12.107 31.734 12.107 43.84 0z"/><path d="M57.78 71.92c8.2-8.2 8.2-21.497 0-29.698-8.202-8.2-21.5-8.2-29.7 0s-8.2 21.497 0 29.698c8.2 8.2 21.498 8.2 29.7 0zm2.827 2.83c-9.763 9.762-25.592 9.762-35.355 0-9.763-9.764-9.763-25.593 0-35.356 9.763-9.764 25.592-9.764 35.355 0 9.763 9.763 9.763 25.592 0 35.355z"/><path d="M43.636 71.92c4.296-4.295 4.296-11.26 0-15.556-4.295-4.296-11.26-4.296-15.556 0-4.296 4.296-4.296 11.26 0 15.556 4.296 4.296 11.26 4.296 15.556 0zm2.83 2.83c-5.86 5.857-15.356 5.857-21.214 0-5.858-5.86-5.858-15.356 0-21.214 5.858-5.858 15.355-5.858 21.213 0 5.858 5.858 5.858 15.355 0 21.213z"/></g></g></g>
</svg>
